<?xml version="1.0" encoding="UTF-8" standalone="no"?>
<!-- Created with Inkscape (http://www.inkscape.org/) -->

<svg
   xmlns:dc="http://purl.org/dc/elements/1.1/"
   xmlns:cc="http://creativecommons.org/ns#"
   xmlns:rdf="http://www.w3.org/1999/02/22-rdf-syntax-ns#"
   xmlns:svg="http://www.w3.org/2000/svg"
   xmlns="http://www.w3.org/2000/svg"
   xmlns:sodipodi="http://sodipodi.sourceforge.net/DTD/sodipodi-0.dtd"
   xmlns:inkscape="http://www.inkscape.org/namespaces/inkscape"
   width="210mm"
   height="297mm"
   viewBox="0 0 210 297"
   version="1.1"
   id="svg8"
   inkscape:version="0.92.2 (5c3e80d, 2017-08-06)"
   sodipodi:docname="kira-tracing.svg">
  <defs
     id="defs2" />
  <sodipodi:namedview
     id="base"
     pagecolor="#ffffff"
     bordercolor="#666666"
     borderopacity="1.0"
     inkscape:pageopacity="0.0"
     inkscape:pageshadow="2"
     inkscape:zoom="0.98994949"
     inkscape:cx="339.68963"
     inkscape:cy="520.90199"
     inkscape:document-units="mm"
     inkscape:current-layer="layer1"
     showgrid="false"
     inkscape:window-width="1920"
     inkscape:window-height="1016"
     inkscape:window-x="0"
     inkscape:window-y="27"
     inkscape:window-maximized="1" />
  <metadata
     id="metadata5">
    <rdf:RDF>
      <cc:Work
         rdf:about="">
        <dc:format>image/svg+xml</dc:format>
        <dc:type
           rdf:resource="http://purl.org/dc/dcmitype/StillImage" />
        <dc:title></dc:title>
      </cc:Work>
    </rdf:RDF>
  </metadata>
  <g
     inkscape:groupmode="layer"
     id="layer3"
     inkscape:label="Highlights"
     style="display:inline">
    <path
       id="path1483"
       d="m 127.67006,92.887437 2.99878,3.054594 2.99879,3.055112 -1.23507,0.306959 c -0.6791,0.168828 -1.9137,0.611714 -2.7435,0.984438 -0.8298,0.37272 -1.58407,0.67748 -1.67587,0.67748 -0.18937,0 -0.32003,-2.237265 -0.33383,-5.714901 z"
       style="fill:#a4ed6c;fill-opacity:1;stroke-width:0.35277778"
       inkscape:connector-curvature="0" />
    <path
       id="path1513"
       d="m 129.75262,120.38296 c 3.41504,1.77697 5.67092,4.71325 8.06307,7.55717 l -1.36839,0.61495 c -0.75276,0.33819 -1.62717,0.61925 -1.94303,0.62425 -0.31585,0.005 -1.14415,0.24691 -1.84072,0.53795 -1.64618,0.68782 -1.57878,0.71117 -1.80557,-0.61701 -0.56857,-3.32985 -1.24492,-7.92557 -1.24592,-8.46925 -2.7e-4,-0.15205 0.0433,-0.23679 0.14056,-0.24805 z"
       style="fill:#a4ed6c;fill-opacity:1;stroke-width:0.35277778"
       inkscape:connector-curvature="0"
       sodipodi:nodetypes="cccsccccc" />
    <path
       id="path1515"
       d="m 162.56302,122.54097 1.25109,0.99735 c 1.88783,1.50569 4.60178,4.62722 4.60178,5.2927 0,0.13815 -0.47306,0.94969 -1.05161,1.80351 -1.21422,1.79192 -1.32626,2.43448 -0.42426,2.43448 0.37999,0 0.96305,-0.57423 1.4335,-1.41129 0.43619,-0.77611 0.93028,-1.41076 1.09812,-1.41076 0.38997,0 1.41387,3.49391 1.41387,4.82502 0,0.71475 -0.50492,1.57305 -1.71824,2.92076 l -1.71876,1.90893 -0.87333,-3.66283 c -0.83256,-3.49184 -1.43921,-4.5784 -1.89446,-3.39204 -0.1144,0.29811 0.36161,3.27454 1.05782,6.61458 0.69621,3.34005 1.21952,6.11957 1.16272,6.17637 -0.12087,0.12087 -2.11583,-1.98629 -3.52227,-3.7207 -0.6559,-0.80885 -0.86237,-1.32561 -0.62528,-1.5627 0.23709,-0.23709 0.57028,-0.15865 1.00769,0.2372 0.85467,0.77349 1.47949,0.75155 1.47949,-0.0517 0,-0.3536 -1.0317,-1.55444 -2.29288,-2.66857 -2.97051,-2.73525 -2.69915,-3.56521 -2.64587,-5.23069 0,-0.6408 0.0813,-0.62407 1.0852,0.22066 2.23485,1.88051 2.97608,0.48299 0.76688,-1.44591 -0.7276,-0.63529 -1.43068,-1.15769 -1.56218,-1.16169 -0.30488,-0.009 0.0207,-3.62492 0.49299,-5.47511 0.35018,-1.37199 0.37,-1.38667 0.70487,-0.52917 0.31764,0.81339 0.98758,3.38857 1.4919,5.73298 0.11478,0.53357 0.44388,0.96997 0.73122,0.96997 0.81374,0 0.64657,-1.93558 -0.46354,-5.36505 z"
       style="fill:#a4ed6c;fill-opacity:1;stroke-width:0.35277778"
       inkscape:connector-curvature="0"
       sodipodi:nodetypes="ccscscssccscsssscsccscccccscc" />
    <path
       id="path1543"
       d="m 132.82892,148.61332 c 2.92324,1.81209 3.92728,3.38241 6.3593,5.63426 -1.4541,2.36592 -3.29933,3.67794 -5.24206,5.4622 l -0.41961,-4.78679 c -0.23066,-2.63279 -0.51669,-5.17438 -0.63562,-5.64771 -0.11783,-0.46899 -0.16443,-0.67656 -0.062,-0.66198 z"
       style="fill:#a4ed6c;fill-opacity:1;stroke-width:0.35277778"
       inkscape:connector-curvature="0"
       sodipodi:nodetypes="ccccccc" />
    <path
       id="path1571"
       d="m 134.14202,169.68387 0.89813,0.65422 c 0.49391,0.35987 0.90299,0.74707 0.90899,0.86042 0.006,0.11336 1.02815,0.89581 2.27066,1.73839 l 2.25878,1.53169 -1.18546,1.08417 c -0.6521,0.59629 -1.65415,1.44135 -2.22674,1.87792 -0.57259,0.43656 -1.11144,0.79375 -1.19734,0.79375 -0.20272,0 -1.22212,-4.62076 -1.50637,-6.82801 z"
       style="fill:#a4ed6c;fill-opacity:1;stroke-width:0.35277778"
       inkscape:connector-curvature="0" />
    <path
       id="path1573"
       d="m 169.80444,170.5293 -0.1571,1.46606 c -0.0864,0.80658 -0.24655,2.3413 -0.35605,3.41012 -0.31914,3.11489 -0.64815,3.03486 -1.69757,-0.41237 -0.53623,-1.76146 -0.92793,-3.23289 -0.87023,-3.27009 0.0577,-0.0372 0.77474,-0.3213 1.59318,-0.63097 z"
       style="fill:#a4ed6c;fill-opacity:1;stroke-width:0.35277778"
       inkscape:connector-curvature="0" />
    <path
       id="path1591"
       d="m 140.44602,185.69426 c 0.36991,-0.0117 1.7394,0.16629 3.3104,0.43615 1.79541,0.30841 3.71759,0.56069 4.27157,0.56069 1.33179,0 1.52112,0.63359 0.97979,3.28094 -0.246,1.20302 -0.54397,2.29365 -0.66198,2.42362 -0.45479,0.50085 -3.11044,-1.15673 -5.26635,-3.28714 -1.40561,-1.389 -2.88939,-3.23684 -2.72851,-3.39772 0.01,-0.01 0.0422,-0.0149 0.0951,-0.0165 z"
       style="fill:#a4ed6c;fill-opacity:1;stroke-width:0.35277778"
       inkscape:connector-curvature="0" />
    <path
       id="path1593"
       d="m 164.73653,186.69058 c 0.62755,0.0117 1.17361,0.0817 1.31517,0.22324 0.41767,0.41767 -0.46573,1.51258 -2.13889,2.651 -0.91872,0.62511 -1.75035,1.25202 -1.84795,1.39269 -0.0976,0.14068 -1.27086,0.82563 -2.60759,1.52238 -6.396,2.50157 1.02883,-3.16481 2.96157,-5.42034 0,-0.24537 1.27178,-0.38843 2.31769,-0.36897 z"
       style="fill:#a4ed6c;fill-opacity:1;stroke-width:0.35277778"
       inkscape:connector-curvature="0"
       sodipodi:nodetypes="ccccccc" />
    <path
       id="path1537"
       d="m 170.52533,138.66816 -0.19793,1.69809 c -0.10881,0.93414 -0.4374,2.37312 -0.7307,3.19774 -0.2933,0.82462 -0.66105,1.49965 -0.81701,1.49965 -0.15595,0 -0.39399,-0.73504 -0.52865,-1.63298 -0.13465,-0.89793 -0.3283,-1.85044 -0.43046,-2.11666 -0.10716,-0.27924 0.0409,-0.4837 0.34985,-0.4837 0.29456,0 0.94507,-0.48647 1.44539,-1.08107 z"
       style="fill:#a4ed6c;fill-opacity:1;stroke-width:0.35277778"
       inkscape:connector-curvature="0" />
    <path
       id="path1539"
       d="m 161.85066,138.74644 c 0.0478,0.0178 1.90576,1.77137 2.03436,1.90313 0.2373,0.24307 -0.50931,0.86007 -0.61963,0.96697 -0.11032,0.10688 -0.80042,-0.80071 -0.9274,-1.15069 -0.11469,-0.31607 -0.56698,-1.74904 -0.48732,-1.71941 z"
       style="fill:#a4ed6c;fill-opacity:1;stroke-width:0.35277778"
       inkscape:connector-curvature="0"
       sodipodi:nodetypes="cccccc" />
  </g>
  <g
     inkscape:label="Body"
     inkscape:groupmode="layer"
     id="layer1"
     style="display:inline">
    <path
       style="display:inline;fill:#ebf8b8;fill-opacity:1;stroke:none;stroke-width:1.33333337;stroke-opacity:1"
       d="m 405.86719,284.3125 c -5.70278,-0.0136 -33.44883,5.4664 -50.66602,10.00586 -27.90637,7.35775 -50.59017,22.84735 -72.68945,44.72656 -17.08528,16.91516 -25.92131,29.17388 -35.07813,47.90039 -13.9267,28.48135 -20.92225,39.06907 -39.85156,60.30469 -9.44126,10.59163 -28.63736,27.6875 -31.08789,27.6875 -2.35763,0 -22.43859,21.76678 -25.83008,27.99805 -4.45444,8.18426 -3.98978,11.45715 2.80078,19.74414 8.8831,10.84063 26.13287,18.51569 38.40235,17.08593 10.42688,-1.21489 24.39468,-5.40125 35.54297,-10.65234 18.27667,-8.6087 45.01356,-13.33199 64.35937,-11.37109 16.32393,1.65456 19.53639,3.81246 31.2832,21.02148 11.19685,16.40334 17.40178,40.44977 17.45508,67.64453 0.0151,7.40912 0.40208,17.0672 0.86133,21.46094 0.7818,7.48003 1.10525,8.08703 5.09375,9.5293 5.18513,1.87495 12.72042,1.98755 17.26953,0.25781 2.26575,-0.86143 3.66061,-0.82061 4.2461,0.12695 1.5521,2.51131 -2.77508,5.20134 -9.6836,6.01953 -8.03437,0.95158 -16.95799,-1.67846 -25.6289,-7.55468 -3.22704,-2.18699 -7.38506,-3.97657 -9.24024,-3.97657 -2.69673,0 -14.55081,6.56717 -22.22461,12.3125 -21.07842,15.78131 -22.7713,19.14612 -14.54883,28.91797 2.77932,3.30297 4.47621,4.10157 8.70508,4.10157 6.62438,0 19.51415,-6.37944 28.6543,-14.1836 7.21878,-6.16365 9.87989,-6.99819 12.44922,-3.90234 3.39398,4.08948 12.12416,7.41992 19.44726,7.41992 6.40339,0 7.29297,0.32441 7.29297,2.66602 0,2.38726 -0.8738,2.66339 -8.33398,2.62109 -4.69421,-0.0265 -9.78831,-0.87974 -11.66602,-1.95313 -1.83333,-1.04802 -3.69281,-1.92712 -4.13086,-1.95312 -0.43804,-0.0265 -1.18808,7.0025 -1.66797,15.61914 -0.47992,8.61668 -2.09255,21.36733 -3.58203,28.33398 -6.46688,30.247 -6.46411,26.98473 -0.0176,45.45899 3.16215,9.06232 8.05965,20.09003 10.88477,24.50781 11.58814,18.12095 15.2506,29.81483 11.88281,37.94531 -2.91983,7.04905 -6.62004,8.36633 -22.50781,8.01563 -23.95635,-0.52883 -30.00466,-0.18702 -35.14648,1.98047 -9.27462,3.90954 -9.64748,10.36268 -1.08008,18.72851 7.12104,6.95354 13.10068,8.2373 28.03125,6.02344 4.76666,-0.70677 18.26668,-1.9046 30,-2.66406 24.22133,-1.56775 30.94891,-3.78171 36.46093,-11.9961 4.63253,-6.90345 3.50026,-18.36476 -3.07812,-31.15234 -3.92886,-7.63725 -4.81609,-10.71628 -4.47461,-15.51953 l 0.42578,-5.99219 8,-1.12304 c 5.44339,-0.7637 10.34226,-0.58665 15.33203,0.55273 17.7902,4.06224 41.80778,12.39937 55.33399,19.20898 20.35393,10.24695 34.55852,13.31147 61.33398,13.22657 21.55707,-0.0684 44.52235,-3.34357 60.74219,-8.66016 11.19662,-3.67003 12.88089,-4.62322 22.13476,-12.5332 17.46286,-14.9266 23.53018,-22.20609 33.34961,-40.00782 10.6486,-19.30499 11.39722,-21.55873 14.35743,-43.27929 2.76684,-20.30185 2.59161,-37.84296 -0.6211,-62.05469 -1.45961,-11.00001 -3.25035,-24.47632 -3.97851,-29.94727 -1.344,-10.09802 -6.72579,-33.75667 -7.50196,-32.98046 -0.23357,0.23319 0.15753,5.48725 0.86914,11.67578 1.88459,16.39279 1.55716,49.21426 -0.64453,64.58593 -5.05296,35.27827 -9.71513,46.88647 -21.93359,54.59961 -3.11756,2.27453 -5.69661,4.22404 -6.99609,5.14649 -3.57616,3.57615 -17.62209,9.90791 -25.67188,11.57226 -19.32627,3.99583 -38.8898,-4.58773 -58.4043,-25.625 -6.06912,-6.5427 -12.88072,-15.41394 -15.13672,-19.71289 -2.25588,-4.29894 -4.82651,-8.68975 -5.71289,-9.75781 -0.88641,-1.06798 -1.47505,-4.47439 -1.30664,-5.10156 0.16857,-0.62721 -0.97444,-4.5211 -2.54101,-11.1211 -2.48168,-10.45523 -5.57945,-46.82266 -4.76953,-56 0.31143,-3.5272 -1.64173,-25.13941 -4.2168,-46.66601 -1.1404,-9.53333 -2.9259,-28.43335 -3.96875,-42 -1.04289,-13.56665 -2.85379,-30.06797 -4.02344,-36.66797 -1.16961,-6.6 -3.00883,-21.59871 -4.08789,-33.33203 -1.07905,-11.73336 -2.55588,-24.5891 -3.28125,-28.56641 -0.72533,-3.97735 -1.93432,-21.676 -2.68554,-39.33203 -1.82567,-42.89837 -3.76028,-52.53693 -13.40821,-66.76953 -3.39201,-5.00391 -14.78553,-15.19997 -25.51758,-22.83594 -5.07363,-3.60995 -26.70952,-9.77066 -34.3789,-9.78906 z m -51.34571,53.27734 c 7.44585,-0.002 14.13591,1.10625 18.72852,3.44922 5.31504,2.71152 16.10866,13.40453 19.01758,18.83985 2.77066,5.17701 5.24633,17.22805 6.16797,30.03125 0.79578,11.05519 0.59199,12.62063 -2.52344,19.43164 -3.92251,8.57552 -17.40196,25.85508 -24.23438,31.0664 -6.92303,5.28046 -26.24441,13.79527 -34.95898,15.40625 -12.31676,2.27687 -25.80039,1.78719 -31.55469,-1.14648 -13.3649,-6.81381 -19.70869,-15.20251 -22.90625,-30.29492 -7.00274,-33.05231 6.2535,-62.67505 34.95508,-78.10938 10.3908,-5.58767 24.89885,-8.6713 37.30859,-8.67383 z m -34.17773,282.38086 -17.70313,9.42383 c -22.84621,12.16328 -26.9604,16.03373 -22.15624,20.83789 1.17055,1.17063 2.70281,0.64554 6.33203,-2.16601 2.63372,-2.04038 9.28905,-6.71598 14.78906,-10.39063 18.68118,-12.48121 20.75666,-13.14456 28.48633,-9.11328 5.05651,2.63717 6.18164,2.5135 6.18164,-0.67578 0,-2.01899 -0.89183,-2.66788 -3.66797,-2.67188 -2.01664,-0.003 -5.60109,-1.18375 -7.96485,-2.625 z m 8.42187,143.59961 c -0.35473,0.0831 -0.32574,1.97996 -0.0996,6.42969 0.49311,9.7042 5.13655,20.03801 13.0371,29.01367 4.5947,5.21983 5.34006,6.88933 4.98633,11.17188 -0.62955,7.62107 -5.78444,8.8903 -27.88867,6.87109 -15.28165,-1.39597 -17.41976,-1.32838 -20.42187,0.63867 -7.16882,4.69724 -3.44122,5.5377 23.54687,5.30469 l 25.625,-0.2207 3.02734,-3.52149 c 1.66515,-1.93587 3.02735,-4.92459 3.02735,-6.64258 0,-3.77257 -6.51346,-16.46662 -12.00977,-23.40625 -2.19477,-2.77111 -3.99023,-5.44018 -3.99023,-5.93164 0,-0.85579 -4.37391,-11.04913 -7.74805,-18.05664 -0.52818,-1.09691 -0.87888,-1.70029 -1.0918,-1.65039 z"
       transform="scale(0.26458333)"
       id="path1967"
       inkscape:connector-curvature="0" />
    <path
       style="fill:none;fill-opacity:1;stroke-width:0.35277778"
       d="m 107.3855,75.224434 c 2.0292,0.0049 7.75367,1.634889 9.09609,2.590022 2.83953,2.02035 5.85406,4.718058 6.75153,6.042009 2.55267,3.765706 3.06454,6.315395 3.54759,17.665595 0.1988,4.67148 0.51863,9.35478 0.71053,10.4071 0.19193,1.05233 0.58267,4.45323 0.86818,7.55768 0.28549,3.10444 0.77214,7.07337 1.08159,8.81962 0.30946,1.74625 0.78859,6.1117 1.06453,9.70121 0.2759,3.58951 0.74834,8.59014 1.05007,11.1125 0.68131,5.69558 1.19809,11.41433 1.11567,12.34757 -0.21426,2.42817 0.60534,12.05039 1.26196,14.81667 0.4145,1.74625 0.71691,3.31084 0.67231,3.47679 -0.0445,0.16594 0.11067,0.53288 0.3452,0.81545 0.23452,0.28259 0.91514,1.44433 1.51204,2.58175 0.5969,1.13744 2.39913,3.4841 4.00494,5.21519 5.16322,5.56611 10.33939,7.83718 15.45278,6.77995 2.12984,-0.44036 5.84618,-2.11512 6.79236,-3.06131 0.28839,-0.2884 1.12138,-0.90157 1.85105,-1.36219 3.23281,-2.04077 4.46635,-5.11159 5.80326,-14.44563 0.58254,-4.06709 0.66916,-12.75111 0.17055,-17.08837 -0.1883,-1.63738 -0.29178,-3.02751 -0.22997,-3.08921 0.20537,-0.20537 1.6293,6.05431 1.9849,8.72608 0.19265,1.44752 0.66593,5.01313 1.05212,7.92355 0.85003,6.40602 0.89691,11.04659 0.16486,16.41811 -0.78322,5.74691 -0.98131,6.34372 -3.79875,11.4515 -2.59805,4.71004 -4.20336,6.63607 -8.82375,10.5854 -2.44846,2.09285 -2.89454,2.34505 -5.857,3.31608 -4.29149,1.40668 -10.36723,2.27272 -16.07085,2.29082 -7.08435,0.0225 -10.84265,-0.78784 -16.22795,-3.49902 -3.57881,-1.80171 -9.93347,-4.00757 -14.64046,-5.08237 -1.32021,-0.30146 -2.61636,-0.34831 -4.05659,-0.14625 l -2.11667,0.29714 -0.11318,1.58544 c -0.0904,1.27086 0.14493,2.08552 1.18443,4.1062 1.74053,3.38339 2.04012,6.41586 0.81441,8.24239 -1.45841,2.1734 -3.23839,2.75866 -9.646942,3.17346 -3.104436,0.20093 -6.676311,0.51838 -7.9375,0.70538 -3.950383,0.58575 -5.532493,0.24609 -7.416604,-1.5937 -2.266789,-2.21346 -2.168139,-3.92086 0.285771,-4.95525 1.36044,-0.57349 2.96073,-0.66392 9.299172,-0.524 4.203647,0.0928 5.182659,-0.25574 5.955189,-2.12081 0.891064,-2.15119 -0.078,-5.24519 -3.143991,-10.03969 -0.747474,-1.16887 -2.043271,-4.08714 -2.87991,-6.48488 -1.705663,-4.88798 -1.706377,-4.02432 0.005,-12.02717 0.39407,-1.84326 0.820764,-5.21687 0.947737,-7.4967 0.126974,-2.27982 0.325411,-4.13957 0.441325,-4.13256 0.115888,0.007 0.60788,0.23947 1.092941,0.51676 0.496808,0.284 1.844622,0.50925 3.086656,0.51625 1.973818,0.0112 2.205011,-0.0614 2.205011,-0.69298 0,-0.61955 -0.235374,-0.70539 -1.92958,-0.70539 -1.93757,0 -4.247436,-0.88118 -5.145431,-1.96318 -0.679794,-0.81911 -1.383877,-0.59831 -3.293859,1.03249 -2.418332,2.06485 -5.828752,3.75274 -7.58145,3.75274 -1.118891,0 -1.56786,-0.21129 -2.303222,-1.0852 -2.175518,-2.58547 -1.727618,-3.47574 3.849381,-7.65122 2.030359,-1.52011 5.166751,-3.25768 5.880261,-3.25768 0.49085,0 1.591011,0.47298 2.444821,1.05162 2.294176,1.55475 4.655212,2.25113 6.78098,1.99936 1.827874,-0.21648 2.97225,-0.92822 2.56159,-1.59267 -0.154914,-0.25071 -0.523452,-0.26202 -1.122918,-0.0341 -1.203616,0.45766 -3.197331,0.42786 -4.569222,-0.0682 -1.055291,-0.3816 -1.140883,-0.54168 -1.347735,-2.52077 -0.121496,-1.16251 -0.22389,-3.71788 -0.227885,-5.67821 -0.0141,-7.19528 -1.655842,-13.55756 -4.618331,-17.89762 -3.10801,-4.55322 -3.957971,-5.12468 -8.277011,-5.56245 -5.118579,-0.51882 -12.192719,0.7314 -17.028419,3.00913 -2.949652,1.38934 -6.645301,2.49694 -9.404072,2.81843 -3.246308,0.37828 -7.810299,-1.65241 -10.160619,-4.52066 -1.796669,-2.1926 -1.919621,-3.05854 -0.74104,-5.22397 0.897321,-1.64869 6.210411,-7.40782 6.834201,-7.40782 0.648369,0 5.72734,-4.52328 8.22534,-7.32565 5.00838,-5.61859 6.859288,-8.41992 10.544058,-15.9556 2.42274,-4.954732 5.611202,-9.284937 10.131682,-13.760407 5.847098,-5.788874 10.998271,-8.800409 18.381813,-10.747147 4.555384,-1.201066 11.896542,-2.650985 13.405402,-2.647384 z"
       id="path1465"
       inkscape:connector-curvature="0" />
    <path
       id="path1469"
       d="m 69.913898,82.705114 c 0.54946,0.02416 1.08584,0.162063 1.90117,0.426332 1.03416,0.33519 2.54059,1.023974 3.3476,1.530654 l 1.4671,0.92139 -2.77193,2.840654 c -3.75203,3.845279 -7.04317,8.304069 -8.90591,12.065416 -0.85043,1.71721 -2.14996,4.23371 -2.88768,5.59191 -1.67134,3.07708 -1.62863,3.03283 -2.47996,2.57555 -2.58282,-1.38735 -4.76533,-5.55869 -4.75733,-9.091955 0.008,-3.336022 1.17027,-7.58314 2.67632,-9.77873 2.16386,-3.154574 6.43333,-5.948402 10.43089,-6.825424 0.86737,-0.190288 1.43026,-0.279953 1.97973,-0.255797 z"
       style="fill:#000000;fill-opacity:0;stroke-width:0.35277778"
       inkscape:connector-curvature="0" />
    <path
       id="path1477"
       d="m 93.869018,89.422017 c -3.28341,7.94e-4 -7.12148,0.817063 -9.87071,2.295467 -7.59396,4.083667 -11.10134,11.920836 -9.24853,20.665926 0.84602,3.9932 2.52448,6.21323 6.06061,8.01605 1.52249,0.7762 5.08952,0.90576 8.34833,0.30334 2.30573,-0.42624 7.41836,-2.67912 9.25008,-4.07624 1.807742,-1.37883 5.374182,-5.95071 6.412012,-8.21965 0.82429,-1.80208 0.87821,-2.21627 0.66766,-5.14129 -0.24385,-3.387518 -0.89887,-6.576538 -1.63194,-7.946289 -0.76965,-1.438095 -3.62547,-4.267285 -5.031742,-4.98471 -1.21512,-0.619911 -2.98572,-0.913006 -4.95577,-0.912604 z"
       style="fill:#000000;fill-opacity:0;stroke-width:0.35277778"
       inkscape:connector-curvature="0" />
  </g>
  <g
     inkscape:groupmode="layer"
     id="layer2"
     inkscape:label="Outline"
     style="display:inline">
    <path
       style="display:inline;fill:#000000;fill-opacity:1;stroke:#000000;stroke-width:1.33333337;stroke-opacity:1"
       d="m 405.10156,279.29102 c -1.15788,-0.0272 -2.1255,0.0111 -2.84375,0.12304 -20.85747,3.25232 -55.75222,11.26696 -64.23828,14.75391 -14.09344,5.791 -24.75393,11.60126 -33.73242,18.38867 l -9.88672,7.47461 -4.60351,-3.50977 c -14.03441,-10.70454 -34.20696,-11.12351 -51.75391,-1.07421 -23.82299,13.64365 -33.74687,31.22461 -33.82813,59.9375 -0.034,12.01077 0.34825,14.15082 3.85743,21.56835 3.94114,8.33088 13.51255,19.09961 16.97656,19.09961 2.91061,0 0.85602,2.92674 -14.8418,21.13477 -13.81943,16.0292 -23.40898,25.02535 -37.65625,35.33008 -9.26804,6.70333 -22.14712,20.92151 -25.59375,28.2539 -3.85697,8.20532 -3.40887,16.70241 1.17774,22.31641 0.73303,0.89722 2.88066,3.5628 4.77148,5.92383 4.57111,5.70792 22.4752,14.58413 31.75977,15.74414 9.7977,1.22415 29.55299,-3.33593 44.20312,-10.20117 17.20844,-8.06419 35.62522,-12.35662 53.30664,-12.42578 21.05496,-0.0822 25.63979,2.26561 37.01953,18.95117 12.19004,17.87372 18.78331,44.82413 17.25781,70.54101 -0.62005,10.45455 -1.01874,10.71436 -8.48437,5.54688 -1.94653,-1.34733 -4.34327,-2.44922 -5.32617,-2.44922 -3.36537,0 -39.1282,19.00739 -43.4668,23.10156 -4.84921,4.57603 -5.82809,11.47789 -2.29101,16.1543 1.13382,1.49904 1.95703,5.48295 1.95703,9.4668 0,9.23784 5.43901,17.16703 12.71093,18.53125 10.09505,1.89384 22.96914,-2.93289 36.13868,-13.54883 l 5.51757,-4.44727 0.63477,5.03906 c 0.92791,7.35493 -1.35033,29.79342 -4.50586,44.3711 -5.47071,25.27347 -5.64433,27.04304 -3.38281,34.75781 1.55516,5.30514 1.70905,7.58506 0.59961,8.92188 -0.81967,0.98759 -1.46579,6.11304 -1.43555,11.39062 0.0703,12.41382 3.65913,21.83567 12.49805,32.80469 5.07008,6.29166 6.40637,8.80957 5.27539,9.9414 -1.75737,1.75869 -11.48753,1.86675 -29.38477,0.32618 -12.07495,-1.03941 -12.88334,-0.9413 -17.33203,2.0957 -5.37876,3.67196 -6.80417,8.72179 -3.20508,11.35352 1.3098,0.95777 1.67891,1.74023 0.82032,1.74023 -0.8586,0 -2.74689,2.32289 -4.19532,5.16211 -2.18233,4.27767 -2.39997,6.00664 -1.27148,10.09375 2.00451,7.25968 9.66602,15.0624 17.01172,17.32422 7.87869,2.42589 8.96739,2.43145 24.17383,0.0879 6.96665,-1.07373 17.89062,-1.96145 24.27734,-1.97656 11.95487,-0.0247 31.87283,-2.40487 33.05469,-3.94922 0.36669,-0.47913 2.4828,-2.13704 4.70312,-3.68555 4.58816,-3.19994 9.96485,-12.98454 9.96485,-18.13672 0,-6.99243 -3.05882,-17.82459 -7.55079,-26.74609 -2.53678,-5.03834 -4.30991,-9.94799 -3.9414,-10.9082 1.07527,-2.80211 11.38727,-3.53622 20.82422,-1.48243 16.91939,3.68221 36.83467,10.65374 48.88672,17.11133 21.55362,11.54861 51.9065,16.98628 80.21093,14.3711 20.77762,-1.91985 47.65978,-7.48224 56.90235,-11.77344 7.74319,-3.59501 20.69245,-13.67586 32.07226,-24.96875 7.98588,-7.9248 25.47068,-37.69926 28.71094,-48.89063 2.95839,-10.21776 5.52737,-33.73036 5.64062,-51.63281 0.19499,-30.73039 -8.24573,-83.57779 -19.21679,-120.31445 -2.6713,-8.94422 -2.67051,-9.00408 -0.0605,-14.9043 1.4414,-3.25844 3.26172,-9.11755 4.04688,-13.01953 4.9096,-24.39863 5.1697,-28.93971 2.21093,-38.68945 -2.42449,-7.98928 -3.76659,-10.44353 -11.58398,-21.19141 -5.8261,-8.01022 -23.3994,-23.88086 -26.44336,-23.88086 -2.0177,0 -6.23341,10.83131 -7.86719,20.21289 -1.85884,10.67403 -1.90738,30.39414 -0.0957,38.45508 0.74166,3.30002 2.93114,10.19868 4.86523,15.33203 2.96897,7.8799 5.25347,11.09953 14.66797,20.66797 l 11.15039,11.33203 3.20703,21.33398 c 1.76395,11.73332 3.39118,29.36399 3.61719,39.17969 l 0.41211,17.84766 -7.58789,2.85156 c -4.17339,1.56881 -7.95313,3.21681 -8.39844,3.66211 -0.4453,0.44534 1.3565,8.23056 4.00391,17.30078 6.11202,20.93976 6.88043,27.0916 4.19141,33.52735 l -2.08594,4.99414 -9.0625,-0.68164 -9.06055,-0.68165 -15.33398,16.52149 c -16.53343,17.8145 -18.16143,18.7089 -27.9043,15.3125 -3.41605,-1.19074 -4.16776,-2.08384 -3.65234,-4.33399 2.05273,-8.96133 3.8379,-22.17713 3.21484,-23.80078 -0.50154,-1.307 -5.98453,-2.60137 -17.85742,-4.21289 -24.96571,-3.38857 -27.89952,-4.30314 -31.08789,-9.70703 -5.26076,-8.91628 -5.05079,-9.61467 5.90625,-19.62891 5.58746,-5.10657 10.04687,-10.28066 10.04687,-11.65429 0,-1.53819 -2.89183,-4.35746 -7.66601,-7.47266 -4.21667,-2.75142 -8.56603,-5.93827 -9.66602,-7.08203 -1.09999,-1.1438 -4.16107,-3.7022 -6.80273,-5.68555 -4.65801,-3.49719 -4.82945,-3.93389 -5.64258,-14.47851 l -0.83789,-10.87305 7.23437,-8.11914 c 3.97932,-4.46555 9.95313,-11.11852 13.27344,-14.78516 3.32032,-3.66667 6.05337,-7.32157 6.07227,-8.12109 0.0198,-0.79956 -2.01792,-2.91624 -4.5293,-4.70312 -2.51138,-1.78685 -9.60226,-7.85656 -15.75586,-13.48829 L 502,553.50195 500.4043,537.77734 c -0.87731,-8.64854 -1.97,-21.16308 -2.42774,-27.80859 l -0.83203,-12.08203 5.89258,-2.25 c 3.24121,-1.23783 6.58392,-2.25 7.42773,-2.25 0.84382,0 5.1747,-1.57863 9.62305,-3.50781 5.35718,-2.32335 8.08789,-4.27478 8.08789,-5.7793 0,-2.03664 -15.34331,-17.71966 -32.35742,-33.07422 -5.15928,-4.65604 -6.31055,-6.51727 -6.31055,-10.20703 0,-2.48179 -0.89098,-12.5202 -1.98047,-22.30664 -1.08952,-9.78645 -2.33179,-20.94295 -2.76172,-24.79297 -0.59238,-5.30646 -0.3557,-7.00025 0.98047,-7.00781 0.96941,-0.005 3.34063,-0.83137 5.26953,-1.83789 1.92908,-1.00657 7.47968,-3.15217 12.33399,-4.76758 6.1869,-2.05886 8.82214,-3.60272 8.81836,-5.16211 -0.004,-1.22355 -6.85495,-9.11184 -15.22656,-17.5293 -13.4589,-13.53256 -15.32003,-15.96042 -16.07227,-20.97656 -1.02119,-6.80988 -8.55518,-22.13113 -13.67383,-27.80469 -5.47336,-6.06669 -24.36352,-20.70982 -29.48047,-22.85351 -7.04488,-2.95136 -24.50813,-6.29812 -32.61328,-6.48828 z m 0.76563,5.02148 c 7.66938,0.0184 29.30527,6.17911 34.3789,9.78906 10.73205,7.63597 22.12557,17.83203 25.51758,22.83594 9.64793,14.2326 11.58254,23.87116 13.40821,66.76953 0.75124,17.65603 1.96021,35.35468 2.68554,39.33203 0.72537,3.97731 2.2022,16.83305 3.28125,28.56641 1.07906,11.73332 2.91828,26.73203 4.08789,33.33203 1.16965,6.6 2.98055,23.10132 4.02344,36.66797 1.04285,13.56665 2.82835,32.46667 3.96875,42 2.57507,21.5266 4.52823,43.13881 4.2168,46.66601 -0.80992,9.17734 2.28785,45.54477 4.76953,56 1.56657,6.6 2.70958,12.51342 2.54101,13.14063 -0.16841,0.62717 0.42023,2.01405 1.30664,3.08203 0.88638,1.06806 3.45699,5.45887 5.71289,9.75781 2.256,4.29895 9.0676,13.17019 15.13672,19.71289 19.5145,21.03727 39.07803,29.62083 58.4043,25.625 8.04979,-1.66435 22.09572,-7.99611 25.67188,-11.57226 1.09001,-1.09002 4.23832,-3.40556 6.99609,-5.14649 12.21846,-7.71314 16.88063,-19.32134 21.93359,-54.59961 2.20169,-15.37167 2.52912,-48.19314 0.64453,-64.58593 -0.71161,-6.18853 -1.10271,-11.44259 -0.86914,-11.67578 0.77617,-0.77621 6.15796,22.88244 7.50196,32.98046 0.72816,5.47095 2.5189,18.94726 3.97851,29.94727 3.21271,24.21173 3.38794,41.75284 0.6211,62.05469 -2.96021,21.72056 -3.70883,23.9743 -14.35743,43.27929 -9.81943,17.80173 -15.88675,25.08122 -33.34961,40.00782 -9.25389,7.90998 -10.93814,8.86317 -22.13476,12.5332 -16.21984,5.31659 -39.18512,8.59175 -60.74219,8.66016 -26.77546,0.0849 -40.98005,-2.97962 -61.33398,-13.22657 -13.52621,-6.80961 -37.54379,-15.14674 -55.33399,-19.20898 -4.98977,-1.13938 -9.88864,-1.31643 -15.33203,-0.55273 l -8,1.12304 -0.42578,5.99219 c -0.34148,4.80325 0.54575,7.88228 4.47461,15.51953 6.57838,12.78758 7.71065,24.24889 3.07812,31.15234 -5.51204,8.21439 -12.2396,10.42835 -36.46093,11.9961 -11.73332,0.75946 -25.23334,1.95729 -30,2.66406 -14.93057,2.21386 -20.91021,0.9301 -28.03125,-6.02344 -8.5674,-8.36583 -8.19454,-14.81897 1.08008,-18.72851 5.14182,-2.16749 11.19013,-2.5093 35.14648,-1.98047 15.88777,0.3507 19.58798,-0.96658 22.50781,-8.01563 3.36779,-8.13048 -0.29467,-19.82436 -11.88281,-37.94531 -2.82512,-4.41778 -7.72262,-15.44549 -10.88477,-24.50781 -6.44655,-18.47426 -6.44928,-15.21199 0.0176,-45.45899 1.48948,-6.96665 3.10211,-19.7173 3.58203,-28.33398 0.47989,-8.61664 1.22993,-15.6456 1.66797,-15.61914 0.43805,0.026 2.29753,0.9051 4.13086,1.95312 1.87771,1.07339 6.97181,1.92667 11.66602,1.95313 7.46018,0.0423 8.33398,-0.23383 8.33398,-2.62109 0,-2.34161 -0.88958,-2.66602 -7.29297,-2.66602 -7.3231,0 -16.05328,-3.33044 -19.44726,-7.41992 -2.56933,-3.09585 -5.23044,-2.26131 -12.44922,3.90234 -9.14015,7.80416 -22.02992,14.1836 -28.6543,14.1836 -4.22887,0 -5.92576,-0.7986 -8.70508,-4.10157 -8.22247,-9.77185 -6.52959,-13.13666 14.54883,-28.91797 7.6738,-5.74533 19.52788,-12.3125 22.22461,-12.3125 1.85518,0 6.0132,1.78958 9.24024,3.97657 8.67091,5.87622 17.59453,8.50626 25.6289,7.55468 6.90852,-0.81819 11.2357,-3.50822 9.6836,-6.01953 -0.58549,-0.94756 -1.98035,-0.98838 -4.2461,-0.12695 -4.54911,1.72974 -12.0844,1.61714 -17.26953,-0.25781 -3.9885,-1.44227 -4.31195,-2.04927 -5.09375,-9.5293 -0.45925,-4.39374 -0.84621,-14.05182 -0.86133,-21.46094 -0.0533,-27.19476 -6.25823,-51.24119 -17.45508,-67.64453 -11.74681,-17.20902 -14.95927,-19.36692 -31.2832,-21.02148 -19.34581,-1.9609 -46.0827,2.76239 -64.35937,11.37109 -11.14829,5.25109 -25.11609,9.43743 -35.54297,10.65234 -12.26948,1.42976 -29.51925,-6.2453 -38.40235,-17.08593 -6.79056,-8.28699 -7.25522,-11.55988 -2.80078,-19.74414 3.39149,-6.23127 23.47245,-27.99805 25.83008,-27.99805 2.45053,0 21.64663,-17.09587 31.08789,-27.6875 18.92931,-21.23562 25.92486,-31.82334 39.85156,-60.30469 9.15682,-18.72651 21.20769,-35.09265 38.29297,-52.00781 22.09928,-21.87921 41.56824,-33.26139 69.47461,-40.61914 17.21719,-4.53946 44.96324,-10.01947 50.66602,-10.00586 z m -141.88672,27.89062 c 2.07671,0.0913 4.10398,0.61253 7.18555,1.61133 3.90863,1.26687 9.60222,3.87014 12.65234,5.78516 l 5.54492,3.48242 -10.47461,10.73633 c -14.1809,14.53333 -26.62183,31.38544 -33.66211,45.60156 -3.21418,6.49024 -8.12583,16.00141 -10.91406,21.13477 -6.31688,11.62991 -6.15546,11.46267 -9.37305,9.73437 -9.76184,-5.24353 -18.0107,-21.00923 -17.98047,-34.36328 0.0296,-12.6086 4.42308,-28.66069 10.11524,-36.95898 8.17837,-11.9228 24.31689,-22.48216 39.42578,-25.79688 3.27823,-0.7192 5.40376,-1.05799 7.48047,-0.9668 z m 218.55273,38.86719 11.33399,11.54492 11.33398,11.54688 -4.66797,1.16016 c -2.56667,0.63809 -7.23289,2.31198 -10.36914,3.7207 -3.13625,1.4087 -5.98702,2.56055 -6.33398,2.56055 -0.71573,0 -1.20956,-8.45579 -1.26172,-21.59961 z m 7.8711,103.91992 c 12.90723,6.71611 21.43341,17.81383 30.47461,28.5625 l -5.17188,2.32422 c -2.84508,1.2782 -6.14995,2.34048 -7.34375,2.35938 -1.19376,0.0189 -4.32432,0.93321 -6.95703,2.0332 -6.22178,2.59964 -5.96706,2.68786 -6.82422,-2.33203 -2.14892,-12.58526 -4.7052,-29.95491 -4.70898,-32.00977 -10e-4,-0.57467 0.16365,-0.89494 0.53125,-0.9375 z m 124.00781,8.15625 4.72851,3.76954 c 7.13511,5.69079 17.39258,17.4887 17.39258,20.0039 0,0.52214 -1.78796,3.58937 -3.97461,6.81641 -4.58917,6.77261 -5.01265,9.20117 -1.60351,9.20117 1.43618,0 3.63989,-2.17029 5.41797,-5.33398 1.64859,-2.93333 3.51603,-5.33204 4.15039,-5.33204 1.4739,0 5.34375,13.20537 5.34375,18.23633 0,2.70142 -1.90837,5.94536 -6.49414,11.03907 l -6.4961,7.21484 -3.30078,-13.84375 c -3.14668,-13.19751 -5.43952,-17.30419 -7.16015,-12.82031 -0.43238,1.12671 1.3667,12.37622 3.99804,25 2.63135,12.62381 4.60921,23.12907 4.39453,23.34375 -0.45683,0.45683 -7.99682,-7.50725 -13.3125,-14.0625 -0.44375,-0.54723 -0.81341,-1.04669 -1.14843,-1.52344 -0.93721,-0.89073 -2.43453,-2.98915 -2.78711,-3.96094 -0.43348,-1.19459 -2.14288,-6.61003 -1.8418,-6.49805 0.18066,0.0673 7.20341,6.69537 7.68945,7.19336 0.0805,0.0825 0.12148,0.1784 0.14649,0.28125 2.90555,2.36284 4.97851,2.1393 4.97851,-0.69726 0,-1.33644 -3.89935,-5.87505 -8.66601,-10.08594 -11.22713,-10.33795 -10.20138,-13.4748 -10,-19.76953 0,-2.42192 0.30729,-2.3587 4.10156,0.83398 8.44668,7.10744 11.24817,1.82549 2.89844,-5.46484 -2.74999,-2.4011 -5.40729,-4.37553 -5.9043,-4.39062 -1.1523,-0.034 0.0783,-13.70052 1.86328,-20.69336 1.32352,-5.18548 1.39841,-5.24095 2.66406,-2 1.20053,3.07423 3.73258,12.8072 5.63868,21.66796 0.43381,2.01665 1.67766,3.66602 2.76367,3.66602 3.07555,0 2.44374,-7.31557 -1.75196,-20.27734 z m 30.09375,60.95313 -0.74805,6.41797 c -0.41125,3.53061 -1.65318,8.96926 -2.76172,12.08594 -1.10853,3.11667 -2.49843,5.66796 -3.08789,5.66796 -0.58941,0 -1.48909,-2.77808 -1.99804,-6.17187 -0.50892,-3.39375 -1.24084,-6.99381 -1.62696,-8 -0.40501,-1.0554 0.15458,-1.82813 1.32227,-1.82813 1.1133,0 3.57192,-1.83863 5.46289,-4.08593 z M 502.03125,561.6875 c 11.04847,6.84884 14.84327,12.78399 24.03516,21.29492 -5.49581,8.94206 -12.4699,13.90087 -19.8125,20.64453 l -1.58594,-18.09179 c -0.87179,-9.95071 -1.95285,-19.55674 -2.40235,-21.34571 -0.44527,-1.77256 -0.62151,-2.55706 -0.23437,-2.50195 z m -181.6875,58.2832 4.29687,2.61914 c 2.36376,1.44125 5.94821,2.62232 7.96485,2.625 2.77614,0.004 3.66797,0.65289 3.66797,2.67188 0,3.18928 -1.12513,3.31295 -6.18164,0.67578 -7.72967,-4.03128 -9.80515,-3.36793 -28.48633,9.11328 -5.50001,3.67465 -12.15534,8.35025 -14.78906,10.39063 -3.62922,2.81155 -5.16147,3.33664 -6.33203,2.16601 -4.80416,-4.80416 -0.68998,-8.67461 22.15624,-20.83789 z m 186.65039,21.35352 3.39453,2.47266 c 1.86675,1.36007 3.41287,2.82354 3.43555,3.25195 0.0227,0.42845 3.88593,3.38576 8.58203,6.57031 l 8.53711,5.78906 -4.48047,4.09766 c -2.46463,2.25369 -6.25196,5.44763 -8.41601,7.09766 -2.16412,1.64999 -4.20073,3 -4.5254,3 -0.76618,0 -4.61902,-17.46434 -5.69336,-25.80664 z m 134.78711,3.19531 -0.59375,5.54102 c -0.32655,3.04849 -0.93184,8.84903 -1.3457,12.88867 -1.2062,11.77281 -2.44971,11.47031 -6.41602,-1.5586 -2.02669,-6.65745 -3.50714,-12.21877 -3.28906,-12.35937 0.21808,-0.1406 2.92817,-1.21436 6.02148,-2.38477 z m -110.96094,57.31641 c 1.39809,-0.0442 6.57408,0.62849 12.51172,1.64844 6.7858,1.16559 14.05075,2.11914 16.14453,2.11914 5.03354,0 5.7491,2.39465 3.70313,12.40039 -0.92977,4.54684 -2.05593,8.66893 -2.50196,9.16015 -1.71889,1.89298 -11.75597,-4.37188 -19.90429,-12.42383 -5.31254,-5.24976 -10.92055,-12.23374 -10.3125,-12.84179 0.0378,-0.0378 0.15944,-0.0565 0.35937,-0.0625 z m 90.29492,3.76562 c 0.50976,-0.01 1.01759,-0.009 1.51172,0 2.37185,0.0442 4.43568,0.3088 4.97071,0.84375 1.57859,1.5786 -1.76023,5.71684 -8.08399,10.01953 -3.47233,2.36262 -6.61549,4.73201 -6.98437,5.26368 -0.36889,0.5317 -4.80326,3.12052 -9.85547,5.7539 -24.17386,9.45475 3.88851,-11.96149 11.19336,-20.48633 0,-0.81145 3.67978,-1.32763 7.24804,-1.39453 z m -292.34961,57.96875 c 0.21292,-0.0499 0.56362,0.55348 1.0918,1.65039 3.37414,7.00751 7.74805,17.20085 7.74805,18.05664 0,0.49146 1.79546,3.16053 3.99023,5.93164 5.49631,6.93963 12.00977,19.63368 12.00977,23.40625 0,1.71799 -1.3622,4.70671 -3.02735,6.64258 l -3.02734,3.52149 -25.625,0.2207 c -26.98809,0.23301 -30.71569,-0.60745 -23.54687,-5.30469 3.00211,-1.96705 5.14022,-2.03464 20.42187,-0.63867 22.10423,2.01921 27.25912,0.74998 27.88867,-6.87109 0.35373,-4.28255 -0.39163,-5.95205 -4.98633,-11.17188 -7.90056,-8.97566 -12.54399,-19.30947 -13.0371,-29.01367 -0.22614,-4.44973 -0.25514,-6.34658 0.0996,-6.42969 z"
       transform="scale(0.26458333)"
       id="path1836"
       inkscape:connector-curvature="0" />
    <path
       style="display:inline;fill:#000000;fill-opacity:1;stroke:#000000;stroke-width:0.35277778;stroke-opacity:1"
       d="m 80.741248,120.29771 c -3.53613,-1.80282 -5.21452,-4.02272 -6.06054,-8.01592 -1.85281,-8.74509 1.6545,-16.582275 9.24846,-20.665942 4.39877,-2.365446 11.58623,-3.035674 14.82657,-1.382575 1.406272,0.717423 4.262212,3.546602 5.031862,4.984697 0.73307,1.369751 1.38788,4.558457 1.63173,7.94597 0.21055,2.92502 0.15679,3.3391 -0.6675,5.14118 -1.03783,2.26894 -4.60434,6.84088 -6.412082,8.21971 -1.83172,1.39712 -6.94401,3.65009 -9.24974,4.07633 -3.25881,0.60242 -6.82627,0.47275 -8.34876,-0.30345 z"
       id="path1830"
       inkscape:connector-curvature="0" />
    <path
       style="display:inline;fill:#ffffff;fill-opacity:1;stroke:#000000;stroke-width:0.35277778;stroke-opacity:1"
       d="m 89.198628,119.16507 c 0.99771,-0.18863 3.29645,-1.08934 5.10833,-2.00156 2.89132,-1.45569 3.59096,-2.00337 5.719372,-4.47707 3.36613,-3.91223 4.20054,-5.66545 4.15393,-8.72798 -0.0426,-2.79932 -0.84963,-7.035952 -1.51945,-7.976701 -1.43477,-2.015102 -3.557172,-4.016562 -4.910342,-4.630533 -2.9094,-1.320077 -9.16008,-0.700423 -13.02939,1.291653 -1.05741,0.5444 -3.04996,2.101067 -4.42789,3.459261 -2.18788,2.156542 -2.65027,2.84769 -3.64918,5.45457 -1.48062,3.86401 -1.67813,5.91723 -0.90497,9.40748 0.96221,4.34366 2.2411,6.27539 5.11691,7.72894 2.42082,1.22359 3.91896,1.30834 8.34268,0.47194 z"
       id="path1828"
       inkscape:connector-curvature="0" />
    <path
       style="display:inline;fill:#000000;fill-opacity:1;stroke:none;stroke-width:0.35277778;stroke-opacity:1"
       d="m 77.918418,108.74334 c -0.12935,-0.12935 -0.23519,-0.66037 -0.23519,-1.18004 0,-1.11198 1.08673,-2.22593 2.00223,-2.05239 0.86683,0.16432 1.05917,2.11972 0.28468,2.8942 -0.58677,0.58678 -1.63103,0.75893 -2.05172,0.33823 z"
       id="path1826"
       inkscape:connector-curvature="0" />
    <path
       style="display:inline;fill:#000000;fill-opacity:1;stroke:none;stroke-width:0.35277778;stroke-opacity:1"
       d="m 56.251978,103.10045 c -0.26886,-0.10849 -0.44097,-0.85492 -0.44097,-1.91243 0,-1.677771 0.0334,-1.734491 1.02059,-1.734491 1.09773,0 1.44885,0.50285 1.44885,2.074961 0,1.44171 -0.80508,2.06561 -2.02847,1.57196 z"
       id="path1714"
       inkscape:connector-curvature="0" />
    <path
       style="display:inline;fill:#000000;fill-opacity:1;stroke:none;stroke-width:0.35277778;stroke-opacity:1"
       d="m 49.461008,136.04453 c 0,-0.70694 1.04458,-2.01877 1.6075,-2.01877 0.71874,0 0.63295,1.18973 -0.13598,1.8856 -0.76901,0.69594 -1.47152,0.75952 -1.47152,0.13317 z"
       id="path1832"
       inkscape:connector-curvature="0" />
  </g>
</svg>
